<svg width="19" height="19" viewBox="0 0 19 19" fill="none" xmlns="http://www.w3.org/2000/svg">
<path d="M3.29284 15.7074C2.14332 14.5578 2.27413 12.5582 3.5846 11.2477L6.65 8.18233L5.37275 6.90508L2.30734 9.97049C0.192213 12.0856 -0.0186008 15.3081 1.83678 17.1634C3.69215 19.0188 6.91459 18.808 9.02972 16.6929L12.0951 13.6275L10.8179 12.3502L7.75247 15.4156C6.44201 16.7261 4.44237 16.8569 3.29284 15.7074ZM7.10712 13.2376L13.2379 7.10675L11.8935 5.76228L5.76265 11.8931L7.10712 13.2376ZM9.97086 2.30697L6.90545 5.37238L8.1827 6.64963L11.2481 3.58423C12.5586 2.27376 14.5582 2.14295 15.7077 3.29247C16.8573 4.442 16.7264 6.44164 15.416 7.7521L12.3506 10.8175L13.6278 12.0948L16.6932 9.02935C18.8084 6.91422 19.0192 3.69178 17.1638 1.83641C15.3084 -0.0189702 12.086 0.191843 9.97086 2.30697Z" fill="#4169E1"/>
</svg>
