<svg width="18" height="19" viewBox="0 0 18 19" fill="none" xmlns="http://www.w3.org/2000/svg">
<path d="M17.193 9.08596L9.43653 1.32945C9.12628 1.01919 8.69536 0.82959 8.22135 0.82959L2.18851 0.82959C1.24049 0.82959 0.464844 1.60524 0.464844 2.55326L0.464844 8.5861C0.464844 9.0601 0.654447 9.49102 0.973326 9.8099L8.72983 17.5664C9.04009 17.8767 9.47101 18.0663 9.94502 18.0663C10.419 18.0663 10.8499 17.8767 11.1602 17.5578L17.193 11.5249C17.5119 11.2147 17.7015 10.7838 17.7015 10.3098C17.7015 9.83575 17.5033 9.39622 17.193 9.08596ZM3.48126 5.13876C2.76594 5.13876 2.18851 4.56133 2.18851 3.84601C2.18851 3.13069 2.76594 2.55326 3.48126 2.55326C4.19658 2.55326 4.77401 3.13069 4.77401 3.84601C4.77401 4.56133 4.19658 5.13876 3.48126 5.13876Z" fill="#4169E1"/>
</svg>
