<svg width="39" height="39" viewBox="0 0 39 39" fill="none" xmlns="http://www.w3.org/2000/svg">
<path d="M30.9016 7.9395C27.8631 4.89933 23.8224 3.22378 19.5175 3.22217C10.6467 3.22217 3.42734 10.4383 3.42412 19.3091C3.42251 22.1447 4.16362 24.9126 5.57173 27.3518L3.38867 35.4444L11.8196 33.4514C14.1702 34.7339 16.8157 35.4089 19.5094 35.4106H19.5159C28.3851 35.4106 35.6045 28.1928 35.6093 19.3236C35.6125 15.0236 33.9402 10.9813 30.9016 7.9395ZM27.391 25.0592C27.0559 25.9984 25.4142 26.9039 24.6763 26.9699C23.9384 27.0376 23.2472 27.3034 19.851 25.9646C15.7636 24.3535 13.1826 20.163 12.9828 19.8956C12.7815 19.6265 11.3411 17.7157 11.3411 15.7373C11.3411 13.7588 12.3803 12.7857 12.7492 12.3846C13.1182 11.9818 13.5532 11.8819 13.8222 11.8819C14.0897 11.8819 14.3587 11.8819 14.5923 11.8916C14.8791 11.9028 15.1965 11.9173 15.4978 12.5859C15.8554 13.3818 16.6368 15.3699 16.7367 15.5713C16.8366 15.7727 16.9043 16.0079 16.7706 16.2754C16.6368 16.5428 16.5692 16.7104 16.3694 16.9456C16.168 17.1808 15.9473 17.4692 15.7668 17.6497C15.5654 17.8494 15.356 18.0686 15.5896 18.4697C15.8248 18.8725 16.6304 20.1888 17.8258 21.2537C19.3628 22.6232 20.6566 23.0469 21.0593 23.2499C21.4621 23.4513 21.6957 23.4174 21.931 23.1484C22.1662 22.8809 22.9363 21.9755 23.2037 21.5727C23.4712 21.1699 23.7402 21.2376 24.1092 21.3713C24.4781 21.5051 26.455 22.4782 26.8561 22.6796C27.2589 22.8809 27.5263 22.9808 27.6262 23.1484C27.7261 23.3143 27.7261 24.1199 27.391 25.0592Z" fill="#FAFAFA"/>
</svg>
